<svg xmlns="http://www.w3.org/2000/svg" xmlns:xlink="http://www.w3.org/1999/xlink" viewBox="0 0 760 250"><defs><style>.cls-1{fill:#1e4e62;stroke:url(#linear-gradient);}.cls-1,.cls-2,.cls-3{stroke-miterlimit:10;stroke-width:20px;}.cls-2{fill:#27657e;stroke:url(#linear-gradient-2);}.cls-3{fill:#2e708e;stroke:url(#linear-gradient-3);}.cls-4{fill:#fff;}</style><linearGradient id="linear-gradient" x1="8.438" y1="125" x2="206.06" y2="125" gradientUnits="userSpaceOnUse"><stop offset="0" stop-color="#3a8376"/><stop offset="1" stop-color="#2c708d"/></linearGradient><linearGradient id="linear-gradient-2" x1="27.992" y1="125" x2="186.506" y2="125" gradientUnits="userSpaceOnUse"><stop offset="0" stop-color="#4e8f83"/><stop offset="1" stop-color="#407e98"/></linearGradient><linearGradient id="linear-gradient-3" x1="91.083" y1="340.58" x2="180.894" y2="340.58" gradientTransform="translate(-154.524 -131.831) rotate(-23.78)" gradientUnits="userSpaceOnUse"><stop offset="0" stop-color="#619b91"/><stop offset="1" stop-color="#568da3"/></linearGradient></defs><title>logo</title><g id="Layer_6" data-name="Layer 6"><path class="cls-1" d="M124.7,215.687H89.8L72.343,185.458,89.8,155.229H124.7l17.453,30.229ZM142.154,64.542,124.7,34.313H89.8L72.343,64.542,89.8,94.771H124.7ZM177.06,125H142.154L124.7,155.229l17.453,30.229H177.06l17.453-30.229ZM72.343,64.542H37.438L19.985,94.771,37.438,125H72.343L89.8,94.771ZM19.985,155.229l17.453,30.229H72.343L89.8,155.229,72.343,125H37.438ZM124.7,94.771,142.154,125H177.06l17.453-30.229L177.06,64.542H142.154Z"/><path class="cls-2" d="M61.078,151.657l23.086-13.328,23.086,13.328v26.657L84.163,191.642,61.078,178.314Zm46.171-53.314,23.086,13.328L153.42,98.343V71.686L130.335,58.358,107.249,71.686ZM37.992,111.672v26.657l23.086,13.328,23.086-13.328V111.672L61.078,98.343Zm92.342,0v26.657l23.086,13.328,23.086-13.328V111.672L153.42,98.343Zm23.086,39.985-23.086-13.328-23.086,13.328v26.657l23.086,13.328,23.086-13.328ZM107.249,71.686,84.163,58.358,61.078,71.686V98.343l23.086,13.328,23.086-13.328Z"/><polygon class="cls-3" points="106.405 87.228 79.943 98.888 69.477 125.844 81.137 152.306 108.093 162.772 134.554 151.112 145.021 124.156 133.361 97.694 106.405 87.228"/><path class="cls-4" d="M301.093,155.135H255.872L245.145,186.08H228.559L271.881,65.931h13.945L328.242,186.08H311.655Zm-40.517-13.616h35.9L278.978,89.944h-.5Z"/><path class="cls-4" d="M431.391,169.906Q427.1,176.59,416.5,182.2t-27.52,5.611q-20.795,0-34.411-13.781t-13.616-35.648V113.627q0-21.866,13.121-35.648T387.9,64.2q20.052,0,31.688,10.686t11.306,27.19l-.166.5h-15.6q0-10.974-7.1-18.278t-20.135-7.3q-13.783,0-22.2,10.315t-8.416,26.159v24.921q0,16.01,8.912,26.365A28.7,28.7,0,0,0,388.977,175.1q10.644,0,16.875-2.764a24.3,24.3,0,0,0,9.283-6.561V138.713H387.9V126.005h43.487Z"/><path class="cls-4" d="M521.5,155.135H476.282L465.555,186.08H448.969L492.291,65.931h13.945L548.652,186.08H532.066Zm-40.517-13.616h35.9L499.388,89.944h-.5Z"/><path class="cls-4" d="M595.606,154.557l2.723,9.985h.5l2.723-9.985,31.027-88.626h17.576L605.508,186.08H591.563L546.919,65.931h17.659Z"/><path class="cls-4" d="M731.6,130.379H682.251v42.993h57.764V186.08H665.994V65.931h73.112V78.722H682.251v38.867H731.6Z"/></g></svg>