<svg aria-hidden="true" style="position: absolute; width: 0; height: 0; overflow: hidden;" version="1.1" xmlns="http://www.w3.org/2000/svg" xmlns:xlink="http://www.w3.org/1999/xlink">
<defs>
<symbol id="icon-minetest" viewBox="0 0 32 32">
<title>minetest</title>
<path fill="#53ac56" style="fill: var(--color1, #53ac56)" d="M31.587 16.581l-0.541 0.32-3.080 1.807v0.744l-1.449 0.889v1.48l-1.449 0.885v3.809l6.52-3.829v-5.392zM30.863 17.861v4.397l-5.071 2.979v-2.111l1.449-0.888v-1.48l1.448-0.888v-0.735zM25.836 7.389l-1.504 1.056v6.328l1.524 0.876 1.373-0.804v-6.643zM25.871 8.261l0.633 0.371v5.785l-0.653 0.381-0.796-0.459v-5.507zM8.287 0l-5.653 3.321v6.052l4.057 2.384v2.94l0.179 0.107 1.415 0.849 1.595-0.956v-2.943l3.549-2.087v-6.565zM8.283 0.857l4.421 2.667v5.716l-4.42 2.597-4.924-2.893v-5.195zM9.155 12.18v2.093l-0.871 0.52-0.868-0.52v-2.093l0.868 0.511zM21.084 14.945l-10.507 6.053v1.912l1.159 0.667v1.476l4.277 2.508 9.053-5.469v-1.555l1.449-0.888v-1.533zM21.081 15.796l4.711 2.748v0.687l-1.448 0.887v1.552l-8.335 5.036-3.547-2.080v-1.48l-1.16-0.667v-1.047zM17.108 3.756c-0.003-0-0.007-0-0.011-0-0.067 0-0.129 0.019-0.181 0.052l0.001-0.001-3.488 2.057v0.853l3.671-2.165 4.705 2.756-5.756 3.377c-0.11 0.066-0.182 0.185-0.182 0.32s0.072 0.253 0.179 0.319l0.002 0.001 4.307 2.56-9.411 5.425-9.423-5.567 4.269-2.52-0.725-0.427-4.449 2.627c-0.109 0.066-0.181 0.185-0.181 0.32s0.072 0.254 0.179 0.319l0.002 0.001 10.144 5.992c0.111 0.065 0.247 0.067 0.36 0l10.141-5.843c0.112-0.066 0.185-0.186 0.185-0.323 0-0.135-0.072-0.254-0.18-0.319l-0.002-0.001-4.313-2.563 5.76-3.38c0.109-0.066 0.181-0.185 0.181-0.32s-0.072-0.254-0.179-0.319l-0.002-0.001-5.432-3.184c-0.050-0.027-0.108-0.044-0.171-0.048l-0.001-0zM22.895 7.313c-0 0.134-0.072 0.251-0.18 0.315l-0.002 0.001-0.543 0.32v0.624l-4.687 2.749 0.723 0.429 4.507-2.644c0.109-0.066 0.181-0.184 0.181-0.319 0-0 0-0 0-0.001v0zM4.057 18.207v1.467l-1.448-0.887v5.304l8.549 5.093v-2.336l-1.232-0.74v-1.481l-1.521-0.888v-2.957zM4.783 19.491l2.897 1.715v2.96l1.521 0.889v1.479l1.233 0.739v0.623l-7.101-4.228v-3.575l1.449 0.888v-0.653zM15.84 4.44l-2.412 1.42v0.004zM5.053 10.793l-4.641 2.736v9.305l15.575 9.165 15.575-9.389v-8.933l-4.333-2.545v0.853l3.609 2.12v8.083l-14.855 8.955-14.849-8.736v-8.036l-0.519-0.307c-0.109-0.066-0.181-0.185-0.181-0.32s0.072-0.254 0.179-0.319l0.002-0.001zM31.587 16.58l-0.541 0.32-3.080 1.808v0.744l-1.449 0.888v1.48l-1.449 0.887v3.809l6.52-3.829v-5.392zM30.863 17.86v4.4l-5.071 2.977v-2.112l1.448-0.887v-1.48l1.449-0.888v-0.735zM25.836 7.389l-1.505 1.056v6.328l0.187 0.107 1.337 0.769 1.375-0.804v-6.643zM25.869 8.261l0.635 0.371v5.784l-0.653 0.383-0.796-0.459v-5.507zM8.288 0l-5.653 3.321v6.052l0.181 0.107 3.877 2.276v2.94l0.179 0.107 1.413 0.849 1.596-0.956v-2.943l3.549-2.085v-6.565zM8.284 0.857l4.421 2.667v5.716l-4.42 2.597-4.925-2.893v-5.195zM9.156 12.18v2.093l-0.871 0.52-0.868-0.52v-2.093l0.868 0.511zM21.085 14.945l-10.507 6.053v1.912l1.159 0.667v1.476l4.277 2.508 9.053-5.469v-1.555l1.449-0.888v-1.533zM21.083 15.796l4.711 2.748v0.687l-1.449 0.887v1.552l-8.333 5.036-3.548-2.080v-1.48l-1.16-0.667v-1.048zM17.109 3.756c-0.003-0-0.007-0-0.011-0-0.067 0-0.129 0.019-0.181 0.052l0.001-0.001-3.488 2.057v0.853l3.671-2.165 4.705 2.756-5.757 3.377c-0.109 0.066-0.181 0.185-0.181 0.32s0.072 0.254 0.179 0.319l0.002 0.001 4.307 2.56-9.412 5.424-9.423-5.565 4.271-2.52-0.725-0.427-4.449 2.627c-0.109 0.066-0.181 0.185-0.181 0.32s0.072 0.254 0.179 0.319l0.002 0.001 10.143 5.989c0.112 0.067 0.248 0.067 0.36 0.001l10.143-5.843c0.112-0.066 0.185-0.186 0.185-0.323 0-0.135-0.072-0.254-0.18-0.319l-0.002-0.001-4.313-2.563 5.76-3.38c0.11-0.066 0.182-0.185 0.182-0.321s-0.072-0.254-0.18-0.32l-0.002-0.001-5.433-3.18c-0.049-0.027-0.108-0.045-0.169-0.049l-0.001-0zM22.896 7.313c-0.001 0.134-0.073 0.25-0.18 0.314l-0.002 0.001-0.543 0.32v0.627l-4.687 2.748 0.723 0.429 4.507-2.644c0.109-0.066 0.181-0.184 0.181-0.319 0-0 0-0 0-0.001v0zM22.896 8.604v0.183c0 0.133-0.069 0.255-0.181 0.32l-0.208 0.123 1.827 1.067v-0.853zM27.232 11.133v0.853l3.633 2.12v0.683l-2.645 1.593-2.352 1.373-4.421-2.599v-1.267c0-0.131-0.067-0.253-0.18-0.32l-3.060-1.817-0.724 0.425 3.24 1.925v1.267c0 0.133 0.069 0.256 0.183 0.323l4.781 2.809c0.111 0.067 0.248 0.067 0.36 0.001l2.535-1.48h0.005l2.279-1.373v1.203l0.001 0.035c0.003 0.027 0.009 0.051 0.015 0.072 0.004 0.009 0.009 0.027 0.015 0.036 0.007 0.009 0.009 0.020 0.016 0.035l0.019 0.031c0.031 0.040 0.064 0.073 0.105 0.1l0.029 0.020 0.035 0.015c0.010 0.005 0.022 0.008 0.034 0.009l0 0c0.028 0.008 0.059 0.012 0.092 0.012 0.044 0 0.085-0.008 0.124-0.022l-0.002 0.001 0.035-0.015c0.020-0.009 0.045-0.025 0.063-0.036 0.009-0.009 0.020-0.013 0.029-0.025 0.009-0.009 0.015-0.020 0.024-0.024l0.025-0.031c0.005-0.009 0.015-0.020 0.020-0.031 0.013-0.019 0.024-0.041 0.029-0.065l0-0.001c0.004-0.011 0.005-0.027 0.009-0.036l0.005-0.036c0.001-0.009 0.001-0.019 0.001-0.030 0-0.002 0-0.004-0-0.005v0-2.963c0-0.133-0.068-0.256-0.181-0.323zM4.059 18.207v1.467l-1.448-0.887v5.304l8.549 5.092v-2.335l-1.233-0.74v-1.483l-1.52-0.888v-2.957zM4.784 19.491l2.897 1.715v2.96l1.52 0.889v1.476l1.233 0.74v0.623l-7.1-4.227v-3.575l1.449 0.888v-0.653zM15.84 4.44l-2.411 1.42v0.004zM5.056 10.793l-4.645 2.736v9.304l15.579 9.167 15.575-9.391v-8.932l-4.333-2.545v0.853l3.609 2.12v8.083l-14.855 8.955-14.849-8.736v-8.037l-0.519-0.307c-0.109-0.066-0.181-0.185-0.181-0.32s0.072-0.254 0.179-0.319l0.002-0.001z"></path>
</symbol>
<symbol id="icon-arrow-long-left" viewBox="0 0 20 20">
<title>arrow-long-left</title>
<path d="M0.75 10l5.25-5.5v3.5h13v4h-13v3.5l-5.25-5.5z"></path>
</symbol>
<symbol id="icon-arrow-long-right" viewBox="0 0 20 20">
<title>arrow-long-right</title>
<path d="M14 15.5v-3.5h-13v-4h13v-3.5l5.25 5.5-5.25 5.5z"></path>
</symbol>
<symbol id="icon-bookmark" viewBox="0 0 20 20">
<title>bookmark</title>
<path d="M14 2v17l-4-4-4 4v-17c0-0.553 0.585-1.020 1-1h6c0.689-0.020 1 0.447 1 1z"></path>
</symbol>
<symbol id="icon-chevron-thin-right" viewBox="0 0 20 20">
<title>chevron-thin-right</title>
<path d="M13.25 10l-7.141-7.42c-0.268-0.27-0.268-0.707 0-0.979 0.268-0.27 0.701-0.27 0.969 0l7.83 7.908c0.268 0.271 0.268 0.709 0 0.979l-7.83 7.908c-0.268 0.271-0.701 0.27-0.969 0s-0.268-0.707 0-0.979l7.141-7.417z"></path>
</symbol>
<symbol id="icon-download" viewBox="0 0 20 20">
<title>download</title>
<path d="M15 7h-3v-6h-4v6h-3l5 5 5-5zM19.338 13.532c-0.21-0.224-1.611-1.723-2.011-2.114-0.265-0.259-0.644-0.418-1.042-0.418h-1.757l3.064 2.994h-3.544c-0.102 0-0.194 0.052-0.24 0.133l-0.816 1.873h-5.984l-0.816-1.873c-0.046-0.081-0.139-0.133-0.24-0.133h-3.544l3.063-2.994h-1.756c-0.397 0-0.776 0.159-1.042 0.418-0.4 0.392-1.801 1.891-2.011 2.114-0.489 0.521-0.758 0.936-0.63 1.449l0.561 3.074c0.128 0.514 0.691 0.936 1.252 0.936h16.312c0.561 0 1.124-0.422 1.252-0.936l0.561-3.074c0.126-0.513-0.142-0.928-0.632-1.449z"></path>
</symbol>
<symbol id="icon-address" viewBox="0 0 20 20">
<title>address</title>
<path d="M19.799 5.165l-2.375-1.83c-0.135-0.093-0.324-0.176-0.521-0.237-0.198-0.061-0.403-0.098-0.567-0.098h-6.836l0.801 5h6.035c0.164 0 0.369-0.037 0.566-0.098s0.387-0.145 0.521-0.236l2.375-1.832c0.135-0.091 0.202-0.212 0.202-0.334s-0.067-0.243-0.201-0.335zM8.5 1h-1c-0.276 0-0.5 0.224-0.5 0.5v3.5h-3.336c-0.166 0-0.37 0.037-0.567 0.099-0.198 0.060-0.387 0.143-0.521 0.236l-2.375 1.83c-0.135 0.091-0.201 0.213-0.201 0.335s0.066 0.242 0.201 0.335l2.375 1.832c0.134 0.091 0.323 0.175 0.521 0.235s0.401 0.098 0.567 0.098h3.336v8.5c0 0.276 0.224 0.5 0.5 0.5h1c0.276 0 0.5-0.224 0.5-0.5v-17c0-0.276-0.224-0.5-0.5-0.5z"></path>
</symbol>
<symbol id="icon-aircraft-take-off" viewBox="0 0 20 20">
<title>aircraft-take-off</title>
<path d="M19.87 6.453c0.119 0.257 0.127 1.29-4.884 3.642l-4.913 2.306c-1.71 0.803-4.191 1.859-5.285 2.151-0.766 0.204-1.497-0.316-1.497-0.316s-2.206-1.975-2.792-2.419c-0.585-0.444-0.535-0.67 0.215-0.91 0.467-0.149 3.13 0.493 4.265 0.78 1.339-0.8 2.562-1.486 3.141-1.798-1.396-1.033-4.008-2.962-4.841-3.55-0.799-0.565 0.010-0.768 0.010-0.768 0.368-0.099 1.162-0.228 1.562-0.144 2.721 0.569 7.263 2.071 7.611 2.186 0.832-0.436 2.128-1.092 2.922-1.465 2.075-0.974 4.327-0.037 4.486 0.305z"></path>
</symbol>
<symbol id="icon-align-bottom" viewBox="0 0 20 20">
<title>align-bottom</title>
<path d="M13 11h-2v-8h-2v8h-2l3 3 3-3zM17.4 15h-14.8c-0.552 0-0.6 0.447-0.6 1s0.048 1 0.6 1h14.8c0.552 0 0.6-0.447 0.6-1s-0.048-1-0.6-1z"></path>
</symbol>
<symbol id="icon-align-top" viewBox="0 0 20 20">
<title>align-top</title>
<path d="M10 6l-3 3h2v8h2v-8h2l-3-3zM18 4c0-0.553-0.048-1-0.6-1h-14.8c-0.552 0-0.6 0.447-0.6 1s0.048 1 0.6 1h14.8c0.552 0 0.6-0.447 0.6-1z"></path>
</symbol>
<symbol id="icon-chat" viewBox="0 0 20 20">
<title>chat</title>
<path d="M5.8 12.2v-6.2h-3.8c-1.1 0-2 0.9-2 2v6c0 1.1 0.9 2 2 2h1v3l3-3h5c1.1 0 2-0.9 2-2v-1.82c-0.064 0.014-0.132 0.021-0.2 0.021l-7-0.001zM18 1h-9c-1.1 0-2 0.9-2 2v8h7l3 3v-3h1c1.1 0 2-0.899 2-2v-6c0-1.1-0.9-2-2-2z"></path>
</symbol>
<symbol id="icon-home" viewBox="0 0 20 20">
<title>home</title>
<path d="M18.672 11h-1.672v6c0 0.445-0.194 1-1 1h-4v-6h-4v6h-4c-0.806 0-1-0.555-1-1v-6h-1.672c-0.598 0-0.47-0.324-0.060-0.748l8.024-8.032c0.195-0.202 0.451-0.302 0.708-0.312 0.257 0.010 0.513 0.109 0.708 0.312l8.023 8.031c0.411 0.425 0.539 0.749-0.059 0.749z"></path>
</symbol>
<symbol id="icon-key" viewBox="0 0 20 20">
<title>key</title>
<path d="M17.691 4.725c-0.503-2.977-3.22-4.967-6.069-4.441s-5.256 2.816-4.753 5.795c0.107 0.641 0.408 1.644 0.763 2.365l-5.175 7.723c-0.191 0.285-0.299 0.799-0.242 1.141l0.333 1.971c0.058 0.342 0.372 0.572 0.7 0.514l1.516-0.281c0.328-0.059 0.744-0.348 0.924-0.639l2.047-3.311 0.018-0.022 1.386-0.256 2.39-3.879c0.785 0.139 1.912 0.092 2.578-0.031 2.848-0.526 4.087-3.67 3.584-6.649zM15.166 6.252c-0.784 1.17-1.584 0.346-2.703-0.475-1.119-0.818-2.135-1.322-1.352-2.492s2.326-1.455 3.447-0.635c1.12 0.819 1.391 2.432 0.608 3.602z"></path>
</symbol>
<symbol id="icon-location-pin" viewBox="0 0 20 20">
<title>location-pin</title>
<path d="M10 2.009c-2.762 0-5 2.229-5 4.99 0 4.774 5 11 5 11s5-6.227 5-11c0-2.76-2.238-4.99-5-4.99zM10 9.76c-1.492 0-2.7-1.209-2.7-2.7s1.208-2.7 2.7-2.7c1.49 0 2.699 1.209 2.699 2.7s-1.209 2.7-2.699 2.7z"></path>
</symbol>
<symbol id="icon-magnifying-glass" viewBox="0 0 20 20">
<title>magnifying-glass</title>
<path d="M17.545 15.467l-3.779-3.779c0.57-0.935 0.898-2.035 0.898-3.21 0-3.417-2.961-6.377-6.378-6.377s-6.186 2.769-6.186 6.186c0 3.416 2.961 6.377 6.377 6.377 1.137 0 2.2-0.309 3.115-0.844l3.799 3.801c0.372 0.371 0.975 0.371 1.346 0l0.943-0.943c0.371-0.371 0.236-0.84-0.135-1.211zM4.004 8.287c0-2.366 1.917-4.283 4.282-4.283s4.474 2.107 4.474 4.474c0 2.365-1.918 4.283-4.283 4.283s-4.473-2.109-4.473-4.474z"></path>
</symbol>
<symbol id="icon-map" viewBox="0 0 20 20">
<title>map</title>
<path d="M19.447 3.718l-6-3c-0.281-0.141-0.613-0.141-0.895 0l-5.63 2.815-5.606-1.869c-0.306-0.102-0.64-0.051-0.901 0.138s-0.415 0.49-0.415 0.811v13.001c0 0.379 0.214 0.725 0.553 0.894l6 3c0.141 0.070 0.294 0.106 0.447 0.106s0.307-0.035 0.447-0.106l5.63-2.814 5.606 1.869c0.305 0.1 0.64 0.049 0.901-0.139s0.415-0.49 0.415-0.81v-13.002c0.001-0.379-0.213-0.725-0.552-0.894zM8 5.231l4-2v11.763l-4 2v-11.763zM2 4l4 1.333v11.661l-4-2v-10.994zM18 16.227l-4-1.334v-11.662l4 2v10.996z"></path>
</symbol>
<symbol id="icon-menu" viewBox="0 0 20 20">
<title>menu</title>
<path d="M16.4 9h-12.8c-0.552 0-0.6 0.447-0.6 1s0.048 1 0.6 1h12.8c0.552 0 0.6-0.447 0.6-1s-0.048-1-0.6-1zM16.4 13h-12.8c-0.552 0-0.6 0.447-0.6 1s0.048 1 0.6 1h12.8c0.552 0 0.6-0.447 0.6-1s-0.048-1-0.6-1zM3.6 7h12.8c0.552 0 0.6-0.447 0.6-1s-0.048-1-0.6-1h-12.8c-0.552 0-0.6 0.447-0.6 1s0.048 1 0.6 1z"></path>
</symbol>
<symbol id="icon-paper-plane" viewBox="0 0 20 20">
<title>paper-plane</title>
<path d="M18.64 2.634c-0.344 0.121-17.321 6.104-17.656 6.222-0.284 0.1-0.347 0.345-0.010 0.479 0.401 0.161 3.796 1.521 3.796 1.521v0l2.25 0.901c0 0 10.838-7.958 10.984-8.066 0.148-0.108 0.318 0.095 0.211 0.211s-7.871 8.513-7.871 8.513v0.002l-0.452 0.503 0.599 0.322c0 0 4.65 2.504 4.982 2.682 0.291 0.156 0.668 0.027 0.752-0.334 0.099-0.426 2.845-12.261 2.906-12.525 0.079-0.343-0.148-0.552-0.491-0.431zM7 17.162c0 0.246 0.139 0.315 0.331 0.141 0.251-0.229 2.85-2.561 2.85-2.561l-3.181-1.644v4.064z"></path>
</symbol>
<symbol id="icon-star" viewBox="0 0 20 20">
<title>star</title>
<path d="M10 1.3l2.388 6.722h6.412l-5.232 3.948 1.871 6.928-5.439-4.154-5.438 4.154 1.87-6.928-5.233-3.948h6.412l2.389-6.722z"></path>
</symbol>
</defs>
</svg>
