<svg aria-hidden="true" style="position: absolute; width: 0; height: 0; overflow: hidden;" version="1.1" xmlns="http://www.w3.org/2000/svg" xmlns:xlink="http://www.w3.org/1999/xlink">
<defs>
<symbol id="icon-vpn_key" viewBox="0 0 24 24">
<title>vpn_key</title>
<path d="M6.984 14.016q0.797 0 1.406-0.609t0.609-1.406-0.609-1.406-1.406-0.609-1.383 0.609-0.586 1.406 0.586 1.406 1.383 0.609zM12.656 9.984h10.359v4.031h-2.016v3.984h-3.984v-3.984h-4.359q-0.609 1.641-2.273 2.813t-3.398 1.172q-2.484 0-4.242-1.758t-1.758-4.242 1.758-4.242 4.242-1.758q1.734 0 3.398 1.172t2.273 2.813z"></path>
</symbol>
<symbol id="icon-send" viewBox="0 0 24 24">
<title>send</title>
<path d="M2.016 21v-6.984l15-2.016-15-2.016v-6.984l21 9z"></path>
</symbol>
<symbol id="icon-save_alt" viewBox="0 0 24 24">
<title>save_alt</title>
<path d="M12.984 12.656l2.625-2.578 1.406 1.406-5.016 5.016-5.016-5.016 1.406-1.406 2.625 2.578v-9.656h1.969v9.656zM18.984 12h2.016v6.984q0 0.797-0.609 1.406t-1.406 0.609h-13.969q-0.797 0-1.406-0.609t-0.609-1.406v-6.984h2.016v6.984h13.969v-6.984z"></path>
</symbol>
<symbol id="icon-menu" viewBox="0 0 24 24">
<title>menu</title>
<path d="M3 6h18v2.016h-18v-2.016zM3 12.984v-1.969h18v1.969h-18zM3 18v-2.016h18v2.016h-18z"></path>
</symbol>
<symbol id="icon-pie_chart" viewBox="0 0 24 24">
<title>pie_chart</title>
<path d="M13.031 13.031h8.953q-0.328 3.563-2.859 6.094t-6.094 2.859v-8.953zM13.031 2.016q3.563 0.328 6.094 2.859t2.859 6.094h-8.953v-8.953zM11.016 2.016v19.969q-3.797-0.375-6.398-3.234t-2.602-6.75 2.602-6.75 6.398-3.234z"></path>
</symbol>
<symbol id="icon-account_balance" viewBox="0 0 24 24">
<title>account_balance</title>
<path d="M11.484 0.984l9.516 5.016v2.016h-18.984v-2.016zM15.984 9.984h3v7.031h-3v-7.031zM2.016 21.984v-3h18.984v3h-18.984zM9.984 9.984h3v7.031h-3v-7.031zM3.984 9.984h3v7.031h-3v-7.031z"></path>
</symbol>
<symbol id="icon-account_balance_wallet" viewBox="0 0 24 24">
<title>account_balance_wallet</title>
<path d="M15.984 13.5q0.609 0 1.055-0.422t0.445-1.078-0.445-1.078-1.055-0.422-1.055 0.422-0.445 1.078 0.445 1.078 1.055 0.422zM12 15.984v-7.969h9.984v7.969h-9.984zM21 18v0.984q0 0.797-0.609 1.406t-1.406 0.609h-13.969q-0.844 0-1.43-0.586t-0.586-1.43v-13.969q0-0.844 0.586-1.43t1.43-0.586h13.969q0.797 0 1.406 0.609t0.609 1.406v0.984h-9q-0.844 0-1.43 0.586t-0.586 1.43v7.969q0 0.844 0.586 1.43t1.43 0.586h9z"></path>
</symbol>
<symbol id="icon-exit_to_app" viewBox="0 0 24 24">
<title>exit_to_app</title>
<path d="M18.984 3q0.797 0 1.406 0.609t0.609 1.406v13.969q0 0.797-0.609 1.406t-1.406 0.609h-13.969q-0.844 0-1.43-0.586t-0.586-1.43v-3.984h2.016v3.984h13.969v-13.969h-13.969v3.984h-2.016v-3.984q0-0.844 0.586-1.43t1.43-0.586h13.969zM10.078 15.609l2.578-2.625h-9.656v-1.969h9.656l-2.578-2.625 1.406-1.406 5.016 5.016-5.016 5.016z"></path>
</symbol>
<symbol id="icon-language" viewBox="0 0 24 24">
<title>language</title>
<path d="M16.359 14.016h3.375q0.281-1.313 0.281-2.016t-0.281-2.016h-3.375q0.141 0.984 0.141 2.016t-0.141 2.016zM14.578 19.547q1.172-0.375 2.438-1.43t1.922-2.133h-2.953q-0.469 1.875-1.406 3.563zM14.344 14.016q0.141-0.984 0.141-2.016t-0.141-2.016h-4.688q-0.141 0.984-0.141 2.016t0.141 2.016h4.688zM12 19.969q1.313-1.922 1.922-3.984h-3.844q0.609 2.063 1.922 3.984zM8.016 8.016q0.563-2.016 1.406-3.563-1.172 0.375-2.461 1.43t-1.898 2.133h2.953zM5.063 15.984q0.609 1.078 1.898 2.133t2.461 1.43q-0.938-1.688-1.406-3.563h-2.953zM4.266 14.016h3.375q-0.141-0.984-0.141-2.016t0.141-2.016h-3.375q-0.281 1.313-0.281 2.016t0.281 2.016zM12 4.031q-1.313 1.922-1.922 3.984h3.844q-0.609-2.063-1.922-3.984zM18.938 8.016q-0.656-1.078-1.922-2.133t-2.438-1.43q0.844 1.547 1.406 3.563h2.953zM12 2.016q4.125 0 7.055 2.93t2.93 7.055-2.93 7.055-7.055 2.93-7.055-2.93-2.93-7.055 2.93-7.055 7.055-2.93z"></path>
</symbol>
<symbol id="icon-fingerprint" viewBox="0 0 24 24">
<title>fingerprint</title>
<path d="M14.906 21.984h-0.141q-2.156-0.563-3.703-2.109-0.891-0.891-1.523-2.414t-0.633-2.789q0-1.219 0.891-2.086t2.156-0.867 2.18 0.867 0.914 2.086q0 0.797 0.586 1.359t1.477 0.563 1.5-0.563 0.609-1.359q0-2.813-2.133-4.828t-5.133-2.016q-2.156 0-3.938 1.102t-2.672 2.93q-0.563 1.172-0.563 2.813 0 1.875 0.656 3.609 0.141 0.469-0.328 0.609t-0.609-0.281q-0.75-1.922-0.75-3.938 0-1.828 0.703-3.234 0.984-2.109 3.023-3.375t4.477-1.266q3.422 0 5.836 2.32t2.414 5.555q0 1.219-0.914 2.063t-2.18 0.844-2.156-0.844-0.891-2.063q0-0.797-0.609-1.383t-1.5-0.586-1.477 0.586-0.586 1.383q0 2.625 1.875 4.5 1.313 1.313 3.281 1.828 0.422 0.047 0.328 0.609-0.094 0.375-0.469 0.375zM12.422 14.672q0 1.734 1.289 3t3.211 1.266q0.094 0 0.422-0.047t0.539-0.047 0.422 0.070 0.258 0.305q0.094 0.516-0.422 0.609-0.563 0.094-1.219 0.094-1.875 0-3.094-0.891-2.391-1.641-2.391-4.359 0-0.516 0.516-0.516 0.469 0 0.469 0.516zM9.75 21.797q-0.188 0-0.328-0.141-1.266-1.266-2.016-2.672-1.078-1.875-1.078-4.313 0-2.203 1.664-3.797t4.008-1.594 4.008 1.594 1.664 3.797q0 0.469-0.516 0.469t-0.516-0.469q0-1.828-1.359-3.117t-3.281-1.289-3.281 1.289-1.359 3.117q0 2.25 0.891 3.844 0.609 1.078 1.875 2.438 0.375 0.328 0 0.703-0.141 0.141-0.375 0.141zM3.516 9.703q-0.516 0-0.516-0.469 0-0.094 0.094-0.281 1.5-2.156 3.75-3.281 2.344-1.219 5.156-1.219t5.156 1.219q2.297 1.125 3.75 3.234 0.094 0.188 0.094 0.281 0 0.328-0.375 0.469t-0.563-0.188q-1.406-1.922-3.375-2.906-2.156-1.078-4.688-1.102t-4.688 1.102q-2.109 1.078-3.422 2.953-0.141 0.188-0.375 0.188zM17.813 4.453q-0.188 0-0.234-0.047-2.766-1.406-5.578-1.406-3.047 0-5.578 1.406-0.234 0.141-0.469 0t-0.234-0.422q0-0.328 0.234-0.469 2.719-1.5 6.047-1.5 3.047 0 6.047 1.5 0.422 0.234 0.188 0.656-0.188 0.281-0.422 0.281z"></path>
</symbol>
<symbol id="icon-compare_arrows" viewBox="0 0 24 24">
<title>compare_arrows</title>
<path d="M15 12.984l-3.984-3.984 3.984-3.984v3h6.984v1.969h-6.984v3zM9 14.016v-3l3.984 3.984-3.984 3.984v-3h-6.984v-1.969h6.984z"></path>
</symbol>
<symbol id="icon-logout" viewBox="0 0 24 24">
<title>logout</title>
<path d="M3.984 5.016v13.969h8.016v2.016h-8.016q-0.797 0-1.383-0.609t-0.586-1.406v-13.969q0-0.797 0.586-1.406t1.383-0.609h8.016v2.016h-8.016zM17.016 6.984l4.969 5.016-4.969 5.016-1.406-1.453 2.578-2.578h-10.172v-1.969h10.172l-2.578-2.625z"></path>
</symbol>
<symbol id="icon-minetest" viewBox="0 0 32 32">
<title>minetest</title>
<path fill="#53ac56" style="fill: var(--color1, #53ac56)" d="M31.587 16.581l-0.541 0.32-3.080 1.807v0.744l-1.449 0.889v1.48l-1.449 0.885v3.809l6.52-3.829v-5.392zM30.863 17.861v4.397l-5.071 2.979v-2.111l1.449-0.888v-1.48l1.448-0.888v-0.735zM25.836 7.389l-1.504 1.056v6.328l1.524 0.876 1.373-0.804v-6.643zM25.871 8.261l0.633 0.371v5.785l-0.653 0.381-0.796-0.459v-5.507zM8.287 0l-5.653 3.321v6.052l4.057 2.384v2.94l0.179 0.107 1.415 0.849 1.595-0.956v-2.943l3.549-2.087v-6.565zM8.283 0.857l4.421 2.667v5.716l-4.42 2.597-4.924-2.893v-5.195zM9.155 12.18v2.093l-0.871 0.52-0.868-0.52v-2.093l0.868 0.511zM21.084 14.945l-10.507 6.053v1.912l1.159 0.667v1.476l4.277 2.508 9.053-5.469v-1.555l1.449-0.888v-1.533zM21.081 15.796l4.711 2.748v0.687l-1.448 0.887v1.552l-8.335 5.036-3.547-2.080v-1.48l-1.16-0.667v-1.047zM17.108 3.756c-0.003-0-0.007-0-0.011-0-0.067 0-0.129 0.019-0.181 0.052l0.001-0.001-3.488 2.057v0.853l3.671-2.165 4.705 2.756-5.756 3.377c-0.11 0.066-0.182 0.185-0.182 0.32s0.072 0.253 0.179 0.319l0.002 0.001 4.307 2.56-9.411 5.425-9.423-5.567 4.269-2.52-0.725-0.427-4.449 2.627c-0.109 0.066-0.181 0.185-0.181 0.32s0.072 0.254 0.179 0.319l0.002 0.001 10.144 5.992c0.111 0.065 0.247 0.067 0.36 0l10.141-5.843c0.112-0.066 0.185-0.186 0.185-0.323 0-0.135-0.072-0.254-0.18-0.319l-0.002-0.001-4.313-2.563 5.76-3.38c0.109-0.066 0.181-0.185 0.181-0.32s-0.072-0.254-0.179-0.319l-0.002-0.001-5.432-3.184c-0.050-0.027-0.108-0.044-0.171-0.048l-0.001-0zM22.895 7.313c-0 0.134-0.072 0.251-0.18 0.315l-0.002 0.001-0.543 0.32v0.624l-4.687 2.749 0.723 0.429 4.507-2.644c0.109-0.066 0.181-0.184 0.181-0.319 0-0 0-0 0-0.001v0zM4.057 18.207v1.467l-1.448-0.887v5.304l8.549 5.093v-2.336l-1.232-0.74v-1.481l-1.521-0.888v-2.957zM4.783 19.491l2.897 1.715v2.96l1.521 0.889v1.479l1.233 0.739v0.623l-7.101-4.228v-3.575l1.449 0.888v-0.653zM15.84 4.44l-2.412 1.42v0.004zM5.053 10.793l-4.641 2.736v9.305l15.575 9.165 15.575-9.389v-8.933l-4.333-2.545v0.853l3.609 2.12v8.083l-14.855 8.955-14.849-8.736v-8.036l-0.519-0.307c-0.109-0.066-0.181-0.185-0.181-0.32s0.072-0.254 0.179-0.319l0.002-0.001zM31.587 16.58l-0.541 0.32-3.080 1.808v0.744l-1.449 0.888v1.48l-1.449 0.887v3.809l6.52-3.829v-5.392zM30.863 17.86v4.4l-5.071 2.977v-2.112l1.448-0.887v-1.48l1.449-0.888v-0.735zM25.836 7.389l-1.505 1.056v6.328l0.187 0.107 1.337 0.769 1.375-0.804v-6.643zM25.869 8.261l0.635 0.371v5.784l-0.653 0.383-0.796-0.459v-5.507zM8.288 0l-5.653 3.321v6.052l0.181 0.107 3.877 2.276v2.94l0.179 0.107 1.413 0.849 1.596-0.956v-2.943l3.549-2.085v-6.565zM8.284 0.857l4.421 2.667v5.716l-4.42 2.597-4.925-2.893v-5.195zM9.156 12.18v2.093l-0.871 0.52-0.868-0.52v-2.093l0.868 0.511zM21.085 14.945l-10.507 6.053v1.912l1.159 0.667v1.476l4.277 2.508 9.053-5.469v-1.555l1.449-0.888v-1.533zM21.083 15.796l4.711 2.748v0.687l-1.449 0.887v1.552l-8.333 5.036-3.548-2.080v-1.48l-1.16-0.667v-1.048zM17.109 3.756c-0.003-0-0.007-0-0.011-0-0.067 0-0.129 0.019-0.181 0.052l0.001-0.001-3.488 2.057v0.853l3.671-2.165 4.705 2.756-5.757 3.377c-0.109 0.066-0.181 0.185-0.181 0.32s0.072 0.254 0.179 0.319l0.002 0.001 4.307 2.56-9.412 5.424-9.423-5.565 4.271-2.52-0.725-0.427-4.449 2.627c-0.109 0.066-0.181 0.185-0.181 0.32s0.072 0.254 0.179 0.319l0.002 0.001 10.143 5.989c0.112 0.067 0.248 0.067 0.36 0.001l10.143-5.843c0.112-0.066 0.185-0.186 0.185-0.323 0-0.135-0.072-0.254-0.18-0.319l-0.002-0.001-4.313-2.563 5.76-3.38c0.11-0.066 0.182-0.185 0.182-0.321s-0.072-0.254-0.18-0.32l-0.002-0.001-5.433-3.18c-0.049-0.027-0.108-0.045-0.169-0.049l-0.001-0zM22.896 7.313c-0.001 0.134-0.073 0.25-0.18 0.314l-0.002 0.001-0.543 0.32v0.627l-4.687 2.748 0.723 0.429 4.507-2.644c0.109-0.066 0.181-0.184 0.181-0.319 0-0 0-0 0-0.001v0zM22.896 8.604v0.183c0 0.133-0.069 0.255-0.181 0.32l-0.208 0.123 1.827 1.067v-0.853zM27.232 11.133v0.853l3.633 2.12v0.683l-2.645 1.593-2.352 1.373-4.421-2.599v-1.267c0-0.131-0.067-0.253-0.18-0.32l-3.060-1.817-0.724 0.425 3.24 1.925v1.267c0 0.133 0.069 0.256 0.183 0.323l4.781 2.809c0.111 0.067 0.248 0.067 0.36 0.001l2.535-1.48h0.005l2.279-1.373v1.203l0.001 0.035c0.003 0.027 0.009 0.051 0.015 0.072 0.004 0.009 0.009 0.027 0.015 0.036 0.007 0.009 0.009 0.020 0.016 0.035l0.019 0.031c0.031 0.040 0.064 0.073 0.105 0.1l0.029 0.020 0.035 0.015c0.010 0.005 0.022 0.008 0.034 0.009l0 0c0.028 0.008 0.059 0.012 0.092 0.012 0.044 0 0.085-0.008 0.124-0.022l-0.002 0.001 0.035-0.015c0.020-0.009 0.045-0.025 0.063-0.036 0.009-0.009 0.020-0.013 0.029-0.025 0.009-0.009 0.015-0.020 0.024-0.024l0.025-0.031c0.005-0.009 0.015-0.020 0.020-0.031 0.013-0.019 0.024-0.041 0.029-0.065l0-0.001c0.004-0.011 0.005-0.027 0.009-0.036l0.005-0.036c0.001-0.009 0.001-0.019 0.001-0.030 0-0.002 0-0.004-0-0.005v0-2.963c0-0.133-0.068-0.256-0.181-0.323zM4.059 18.207v1.467l-1.448-0.887v5.304l8.549 5.092v-2.335l-1.233-0.74v-1.483l-1.52-0.888v-2.957zM4.784 19.491l2.897 1.715v2.96l1.52 0.889v1.476l1.233 0.74v0.623l-7.1-4.227v-3.575l1.449 0.888v-0.653zM15.84 4.44l-2.411 1.42v0.004zM5.056 10.793l-4.645 2.736v9.304l15.579 9.167 15.575-9.391v-8.932l-4.333-2.545v0.853l3.609 2.12v8.083l-14.855 8.955-14.849-8.736v-8.037l-0.519-0.307c-0.109-0.066-0.181-0.185-0.181-0.32s0.072-0.254 0.179-0.319l0.002-0.001z"></path>
</symbol>
<symbol id="icon-address" viewBox="0 0 20 20">
<title>address</title>
<path d="M19.799 5.165l-2.375-1.83c-0.135-0.093-0.324-0.176-0.521-0.237-0.198-0.061-0.403-0.098-0.567-0.098h-6.836l0.801 5h6.035c0.164 0 0.369-0.037 0.566-0.098s0.387-0.145 0.521-0.236l2.375-1.832c0.135-0.091 0.202-0.212 0.202-0.334s-0.067-0.243-0.201-0.335zM8.5 1h-1c-0.276 0-0.5 0.224-0.5 0.5v3.5h-3.336c-0.166 0-0.37 0.037-0.567 0.099-0.198 0.060-0.387 0.143-0.521 0.236l-2.375 1.83c-0.135 0.091-0.201 0.213-0.201 0.335s0.066 0.242 0.201 0.335l2.375 1.832c0.134 0.091 0.323 0.175 0.521 0.235s0.401 0.098 0.567 0.098h3.336v8.5c0 0.276 0.224 0.5 0.5 0.5h1c0.276 0 0.5-0.224 0.5-0.5v-17c0-0.276-0.224-0.5-0.5-0.5z"></path>
</symbol>
<symbol id="icon-address" viewBox="0 0 20 20">
<title>address</title>
<path d="M19.799 5.165l-2.375-1.83c-0.135-0.093-0.324-0.176-0.521-0.237-0.198-0.061-0.403-0.098-0.567-0.098h-6.836l0.801 5h6.035c0.164 0 0.369-0.037 0.566-0.098s0.387-0.145 0.521-0.236l2.375-1.832c0.135-0.091 0.202-0.212 0.202-0.334s-0.067-0.243-0.201-0.335zM8.5 1h-1c-0.276 0-0.5 0.224-0.5 0.5v3.5h-3.336c-0.166 0-0.37 0.037-0.567 0.099-0.198 0.060-0.387 0.143-0.521 0.236l-2.375 1.83c-0.135 0.091-0.201 0.213-0.201 0.335s0.066 0.242 0.201 0.335l2.375 1.832c0.134 0.091 0.323 0.175 0.521 0.235s0.401 0.098 0.567 0.098h3.336v8.5c0 0.276 0.224 0.5 0.5 0.5h1c0.276 0 0.5-0.224 0.5-0.5v-17c0-0.276-0.224-0.5-0.5-0.5z"></path>
</symbol>
<symbol id="icon-address" viewBox="0 0 20 20">
<title>address</title>
<path d="M19.799 5.165l-2.375-1.83c-0.135-0.093-0.324-0.176-0.521-0.237-0.198-0.061-0.403-0.098-0.567-0.098h-6.836l0.801 5h6.035c0.164 0 0.369-0.037 0.566-0.098s0.387-0.145 0.521-0.236l2.375-1.832c0.135-0.091 0.202-0.212 0.202-0.334s-0.067-0.243-0.201-0.335zM8.5 1h-1c-0.276 0-0.5 0.224-0.5 0.5v3.5h-3.336c-0.166 0-0.37 0.037-0.567 0.099-0.198 0.060-0.387 0.143-0.521 0.236l-2.375 1.83c-0.135 0.091-0.201 0.213-0.201 0.335s0.066 0.242 0.201 0.335l2.375 1.832c0.134 0.091 0.323 0.175 0.521 0.235s0.401 0.098 0.567 0.098h3.336v8.5c0 0.276 0.224 0.5 0.5 0.5h1c0.276 0 0.5-0.224 0.5-0.5v-17c0-0.276-0.224-0.5-0.5-0.5z"></path>
</symbol>
<symbol id="icon-address" viewBox="0 0 20 20">
<title>address</title>
<path d="M19.799 5.165l-2.375-1.83c-0.135-0.093-0.324-0.176-0.521-0.237-0.198-0.061-0.403-0.098-0.567-0.098h-6.836l0.801 5h6.035c0.164 0 0.369-0.037 0.566-0.098s0.387-0.145 0.521-0.236l2.375-1.832c0.135-0.091 0.202-0.212 0.202-0.334s-0.067-0.243-0.201-0.335zM8.5 1h-1c-0.276 0-0.5 0.224-0.5 0.5v3.5h-3.336c-0.166 0-0.37 0.037-0.567 0.099-0.198 0.060-0.387 0.143-0.521 0.236l-2.375 1.83c-0.135 0.091-0.201 0.213-0.201 0.335s0.066 0.242 0.201 0.335l2.375 1.832c0.134 0.091 0.323 0.175 0.521 0.235s0.401 0.098 0.567 0.098h3.336v8.5c0 0.276 0.224 0.5 0.5 0.5h1c0.276 0 0.5-0.224 0.5-0.5v-17c0-0.276-0.224-0.5-0.5-0.5z"></path>
</symbol>
<symbol id="icon-address" viewBox="0 0 20 20">
<title>address</title>
<path d="M19.799 5.165l-2.375-1.83c-0.135-0.093-0.324-0.176-0.521-0.237-0.198-0.061-0.403-0.098-0.567-0.098h-6.836l0.801 5h6.035c0.164 0 0.369-0.037 0.566-0.098s0.387-0.145 0.521-0.236l2.375-1.832c0.135-0.091 0.202-0.212 0.202-0.334s-0.067-0.243-0.201-0.335zM8.5 1h-1c-0.276 0-0.5 0.224-0.5 0.5v3.5h-3.336c-0.166 0-0.37 0.037-0.567 0.099-0.198 0.060-0.387 0.143-0.521 0.236l-2.375 1.83c-0.135 0.091-0.201 0.213-0.201 0.335s0.066 0.242 0.201 0.335l2.375 1.832c0.134 0.091 0.323 0.175 0.521 0.235s0.401 0.098 0.567 0.098h3.336v8.5c0 0.276 0.224 0.5 0.5 0.5h1c0.276 0 0.5-0.224 0.5-0.5v-17c0-0.276-0.224-0.5-0.5-0.5z"></path>
</symbol>
<symbol id="icon-globe" viewBox="0 0 20 20">
<title>globe</title>
<path d="M10 0.4c-5.295 0-9.601 4.307-9.601 9.6s4.306 9.6 9.601 9.6c5.293 0 9.6-4.307 9.6-9.6s-4.307-9.6-9.6-9.6zM18.188 10c0 1.873-0.636 3.6-1.696 4.98-0.3-0.234-0.619-0.867-0.319-1.523 0.303-0.66 0.382-2.188 0.312-2.783-0.066-0.594-0.375-2.025-1.214-2.039-0.838-0.012-1.413-0.289-1.911-1.283-1.033-2.068 1.939-2.465 0.906-3.609-0.289-0.322-1.783 1.322-2.002-0.869-0.014-0.157 0.135-0.392 0.336-0.636 3.244 1.090 5.588 4.157 5.588 7.762zM8.875 1.893c-0.196 0.382-0.713 0.537-1.027 0.824-0.684 0.619-0.978 0.533-1.346 1.127-0.371 0.594-1.567 1.449-1.567 1.879s0.604 0.936 0.906 0.838c0.302-0.1 1.099-0.094 1.567 0.070 0.469 0.166 3.914 0.332 2.816 3.244-0.348 0.926-1.873 0.77-2.279 2.303-0.061 0.225-0.272 1.186-0.285 1.5-0.025 0.486 0.344 2.318-0.125 2.318-0.471 0-1.738-1.639-1.738-1.936s-0.328-1.338-0.328-2.23c0-0.891-1.518-0.877-1.518-2.062 0-1.068 0.823-1.6 0.638-2.113-0.181-0.51-1.627-0.527-2.23-0.59 1.053-2.731 3.53-4.758 6.516-5.172zM7.424 17.77c0.492-0.26 0.542-0.596 0.988-0.613 0.51-0.023 0.925-0.199 1.5-0.326 0.51-0.111 1.423-0.629 2.226-0.695 0.678-0.055 2.015 0.035 2.375 0.689-1.295 0.861-2.848 1.363-4.514 1.363-0.899 0-1.765-0.149-2.575-0.418z"></path>
</symbol>
<symbol id="icon-star" viewBox="0 0 20 20">
<title>star</title>
<path d="M10 1.3l2.388 6.722h6.412l-5.232 3.948 1.871 6.928-5.439-4.154-5.438 4.154 1.87-6.928-5.233-3.948h6.412l2.389-6.722z"></path>
</symbol>
</defs>
</svg>
